<?xml version="1.0" encoding="utf-8"?>
<!-- Generator: Adobe Illustrator 23.0.3, SVG Export Plug-In . SVG Version: 6.00 Build 0)  -->
<svg version="1.1" id="Layer_1" xmlns="http://www.w3.org/2000/svg" xmlns:xlink="http://www.w3.org/1999/xlink" x="0px" y="0px"
	 viewBox="0 0 258.89 166.717" style="enable-background:new 0 0 258.89 166.717;" xml:space="preserve">
<style type="text/css">
	.st0{opacity:0.5;fill:#EAECFD;}
	.st1{fill:#5F37F7;}
	.st2{fill:#C4D1F7;}
	.st3{fill:#D7E4FF;}
	.st4{fill:#94B2FF;}
	.st5{fill:#F7931E;}
	.st6{fill:#F2557E;}
	.st7{fill:#FFFFFF;}
	.st8{fill:#F47F9E;}
	.st9{fill:#B8C6F4;}
	.st10{fill:#826EF6;}
	.st11{fill:#ABC8E9;}
	.st12{fill:#2B3146;}
	.st13{fill:#F27677;}
	.st14{fill:#808184;}
	.st15{fill:#59595C;}
	.st16{fill:#393E5C;}
	.st17{fill:#FBBE17;}
	.st18{fill:#C9937A;}
	.st19{fill:#F77A1E;}
	.st20{font-family:'Arial-Black';}
	.st21{font-size:7px;}
	.st22{font-family:'Impact';}
	.st23{font-size:8px;}
</style>
<g>
	<ellipse class="st0" cx="129.696" cy="156.443" rx="129.194" ry="10.275"/>
	<g>
		<path class="st1" d="M201.322,141.965H56.233c-2.704,0-4.897-2.192-4.897-4.896V39.601c0-2.704,2.192-4.897,4.897-4.897h145.089
			c2.704,0,4.897,2.192,4.897,4.897v97.467C206.218,139.773,204.026,141.965,201.322,141.965z"/>
		<path class="st1" d="M172.949,151.273l-6.507-3.097c-0.176-0.084-0.368-0.127-0.564-0.127h-26.325v-6.077H118v6.077H91.754
			c-0.193,0-0.383,0.043-0.558,0.125l-6.585,3.097c-1.268,0.596-0.843,2.498,0.558,2.498h87.217
			C173.783,153.769,174.211,151.874,172.949,151.273z"/>
		<polygon class="st2" points="194.109,41.131 179.282,41.131 178.596,41.131 165.266,41.131 152.665,41.131 124.441,41.131 
			57.789,41.131 57.789,98.842 57.789,108.769 57.789,128.037 66.905,128.037 87.123,128.037 95.129,128.037 101.949,128.037 
			107.73,128.037 121.06,128.037 199.765,128.037 199.765,108.769 199.765,98.842 199.765,41.131 		"/>
	</g>
	<g>
		<g>
			<rect x="69.211" y="59.669" class="st3" width="119.131" height="63.661"/>
			<path class="st4" d="M183.873,47.011H73.681c-2.468,0-4.47,2.001-4.47,4.47v8.188h119.131v-8.188
				C188.343,49.012,186.341,47.011,183.873,47.011z"/>
			<path class="st1" d="M78.228,53.009c0,1.062-0.861,1.924-1.924,1.924c-1.062,0-1.924-0.861-1.924-1.924
				c0-1.063,0.861-1.924,1.924-1.924C77.367,51.085,78.228,51.946,78.228,53.009z"/>
			<path class="st5" d="M85.146,53.009c0,1.062-0.861,1.924-1.924,1.924c-1.063,0-1.924-0.861-1.924-1.924
				c0-1.063,0.861-1.924,1.924-1.924C84.285,51.085,85.146,51.946,85.146,53.009z"/>
			<path class="st6" d="M92.064,53.009c0,1.062-0.861,1.924-1.924,1.924s-1.924-0.861-1.924-1.924c0-1.063,0.861-1.924,1.924-1.924
				S92.064,51.946,92.064,53.009z"/>
		</g>
		<g>
			<rect x="131.69" y="63.084" class="st7" width="54.083" height="1.499"/>
			<rect x="131.69" y="67.466" class="st7" width="27.042" height="1.499"/>
			<rect x="131.69" y="71.848" class="st7" width="27.042" height="1.499"/>
			<rect x="131.69" y="105.448" class="st7" width="54.083" height="1.499"/>
			<rect x="131.69" y="109.83" class="st7" width="27.042" height="1.499"/>
			<rect x="131.69" y="114.212" class="st7" width="27.042" height="1.499"/>
			<rect x="131.69" y="91.797" class="st7" width="54.083" height="1.499"/>
			<rect x="131.69" y="96.179" class="st7" width="27.042" height="1.499"/>
			<rect x="131.69" y="100.561" class="st7" width="27.042" height="1.499"/>
			<rect x="131.69" y="77.441" class="st7" width="54.083" height="1.499"/>
			<rect x="131.69" y="81.823" class="st7" width="27.042" height="1.499"/>
			<rect x="131.69" y="86.204" class="st7" width="27.042" height="1.499"/>
			
				<rect x="72.529" y="63.084" transform="matrix(-1 -1.224647e-16 1.224647e-16 -1 199.8909 129.9095)" class="st7" width="54.832" height="3.741"/>
			<rect x="72.529" y="69.972" class="st7" width="54.832" height="45.739"/>
		</g>
	</g>
	<g>
		<g>
			<path class="st6" d="M242.334,127.325c-0.64-0.811-1.381-1.569-1.781-2.522c-0.559-1.33-0.372-2.86,0.052-4.238
				c0.424-1.378,1.074-2.683,1.445-4.077c0.912-3.428-0.033-7.292-2.423-9.913c-0.53-0.581-1.127-1.107-1.564-1.761
				c-1.015-1.518-1.021-3.492-0.751-5.297c0.27-1.805,0.781-3.6,0.672-5.422c-0.132-2.199-1.214-4.324-2.914-5.724
				c-1.665-1.371-3.904-1.853-6.064-1.884c0,0,0-0.002,0-0.002c-0.023,0-0.046,0.001-0.068,0.001c-0.023,0-0.046-0.001-0.068-0.001
				c0,0,0,0.002,0,0.002c-2.161,0.007-4.405,0.463-6.085,1.815c-1.716,1.381-2.822,3.494-2.979,5.691
				c-0.13,1.821,0.361,3.621,0.611,5.429c0.25,1.808,0.221,3.782-0.811,5.288c-0.444,0.649-1.048,1.168-1.584,1.743
				c-2.42,2.594-3.408,6.447-2.535,9.885c0.355,1.398,0.99,2.71,1.399,4.093c0.409,1.383,0.578,2.915,0.004,4.238
				c-0.411,0.948-1.16,1.698-1.809,2.501c-2.403,2.974-3.438,7.432-1.357,10.639c0.831,1.281,2.069,2.242,3.352,3.069
				c1.993,1.285,4.189,2.309,6.513,2.816c1.019,0.222,2.073,0.423,3.097,0.164c0.682-0.172,1.203-0.071,1.928-0.072
				c0.725,0.009,1.247-0.086,1.927,0.094c1.021,0.27,2.078,0.081,3.099-0.129c2.33-0.481,4.537-1.481,6.545-2.743
				c1.292-0.812,2.541-1.76,3.386-3.031C245.688,134.796,244.703,130.326,242.334,127.325z"/>
			<path class="st8" d="M239.695,124.223l-9.994,10.707l-0.355-21.055c1.507-2.004,7.494-9.975,7.494-9.975l-7.526,8.063
				l-0.215-12.793c0.653-0.868,5.414-7.206,5.414-7.206l-5.437,5.825l-0.151-8.991l-0.181,11.535l-5.202-5.701
				c0,0,4.158,5.668,5.181,7.061l-0.204,13.001l-7.44-8.153c0,0,5.979,8.149,7.41,10.098l-0.334,21.326l-10.16-11.134
				c0,0,9.077,12.372,10.118,13.79l-0.049,3.147l1.787,0.01l-0.106-6.307C231.688,134.884,239.695,124.223,239.695,124.223z"/>
		</g>
		<rect x="228.082" y="143.767" class="st8" width="1.793" height="3.439"/>
		<polygon class="st8" points="221.039,147.249 236.919,147.249 233.944,159.804 224.057,159.804 		"/>
		<rect x="221.039" y="146.297" class="st6" width="15.88" height="0.952"/>
	</g>
	<g>
		<polygon class="st7" points="155.596,14.528 159.374,16.594 155.596,18.66 153.53,22.438 151.464,18.66 147.686,16.594 
			151.464,14.528 153.53,10.75 		"/>
		<polygon class="st7" points="164.752,21.242 166.94,22.438 164.752,23.635 163.556,25.822 162.36,23.635 160.172,22.438 
			162.36,21.242 163.556,19.055 		"/>
	</g>
	<g>
		<polygon class="st7" points="202.236,49.833 198.458,51.9 202.236,53.966 204.302,57.744 206.368,53.966 210.146,51.9 
			206.368,49.833 204.302,46.055 		"/>
		<polygon class="st7" points="193.08,56.548 190.893,57.744 193.08,58.94 194.276,61.128 195.473,58.94 197.66,57.744 
			195.473,56.548 194.276,54.36 		"/>
	</g>
	<path class="st6" d="M44.794,69.051h-1.95c-0.453,0-0.858-0.29-0.996-0.722c-0.135-0.422-0.304-0.827-0.505-1.215
		c-0.21-0.404-0.131-0.896,0.192-1.219l1.38-1.381c0.412-0.411,0.412-1.079,0-1.491l-0.839-0.839c-0.412-0.412-1.079-0.412-1.491,0
		l-1.381,1.381c-0.322,0.322-0.814,0.401-1.218,0.192c-0.387-0.201-0.793-0.37-1.215-0.505c-0.432-0.138-0.722-0.542-0.722-0.996
		v-1.95c0-0.582-0.472-1.054-1.054-1.054H33.81c-0.582,0-1.054,0.472-1.054,1.054v1.95c0,0.453-0.29,0.858-0.722,0.996
		c-0.421,0.134-0.827,0.304-1.214,0.505c-0.404,0.21-0.896,0.13-1.218-0.192l-1.381-1.381c-0.411-0.412-1.079-0.412-1.491,0
		l-0.839,0.839c-0.412,0.411-0.412,1.079,0,1.491l1.381,1.381c0.322,0.322,0.401,0.814,0.192,1.219
		c-0.201,0.387-0.371,0.793-0.505,1.215c-0.138,0.432-0.542,0.722-0.996,0.722h-1.95c-0.582,0-1.054,0.472-1.054,1.054v1.187
		c0,0.582,0.472,1.054,1.054,1.054h1.95c0.453,0,0.858,0.29,0.996,0.722c0.134,0.422,0.304,0.827,0.505,1.215
		c0.21,0.404,0.13,0.896-0.192,1.218l-1.381,1.381c-0.412,0.411-0.412,1.079,0,1.49l0.839,0.839c0.412,0.412,1.079,0.412,1.491,0
		l1.381-1.381c0.322-0.322,0.814-0.401,1.218-0.192c0.387,0.201,0.793,0.371,1.215,0.505c0.432,0.138,0.722,0.542,0.722,0.996v1.95
		c0,0.582,0.472,1.054,1.054,1.054h1.187c0.582,0,1.054-0.472,1.054-1.054v-1.95c0-0.453,0.29-0.858,0.722-0.996
		c0.422-0.135,0.827-0.304,1.215-0.505c0.404-0.21,0.896-0.13,1.218,0.192l1.381,1.381c0.412,0.412,1.079,0.412,1.491,0l0.839-0.839
		c0.412-0.411,0.412-1.079,0-1.49l-1.38-1.381c-0.322-0.322-0.401-0.814-0.192-1.218c0.201-0.387,0.37-0.793,0.505-1.215
		c0.138-0.432,0.542-0.722,0.996-0.722h1.95c0.582,0,1.054-0.472,1.054-1.054v-1.187C45.848,69.523,45.377,69.051,44.794,69.051z
		 M38.377,71.491c-0.3,1.585-1.597,2.881-3.181,3.182c-2.853,0.541-5.307-1.913-4.767-4.766c0.3-1.585,1.596-2.881,3.181-3.182
		C36.463,66.184,38.918,68.638,38.377,71.491z"/>
	<g>
		<g>
			<path class="st5" d="M2.906,129.27C1.984,130.967,0,129.779,0,129.779s0.114-0.559,1.005-1.027
				c0.664-0.349,1.619-0.06,1.957,0.062l1.095-0.029l0.017,0c0.244,0.012,0.485,0.031,0.726,0.054
				c-3.122-1.103-1.651-4.79-1.651-4.79s0.98,0.04,2.019,1.424c0.833,1.11,0.506,2.996,0.409,3.458
				c1.246,0.178,2.449,0.495,3.598,0.909c-0.148-0.143-0.3-0.305-0.455-0.49c-1.19-1.425-0.665-4.129-0.665-4.129
				c4.262,0.548,3.414,4.557,3.161,5.477c1.393,0.67,2.685,1.463,3.853,2.292c-0.3-0.414-0.614-1.01-0.841-1.855
				c-0.538-2.007,1.267-4.505,1.267-4.505c4.178,2.629,1.173,6.428,0.582,7.107c0.75,0.579,1.439,1.162,2.057,1.722
				c0.679,0.615,1.305,1.229,1.875,1.819c-0.208-0.559-0.384-1.443-0.215-2.709c0.3-2.252,3.171-4.016,3.171-4.016
				c3.044,4.31-1.312,6.865-2.332,7.386c1.936,2.098,3.055,3.746,3.07,3.768l-0.377,0.254c-0.012-0.018-0.744-1.096-2.045-2.612
				c-1.614,5.109-7.166,2.512-7.166,2.512s0.138-1.394,2.196-2.761c1.327-0.881,3.304-0.652,4.368-0.437
				c-0.798-0.889-1.758-1.88-2.857-2.875c-0.362-0.327-0.749-0.663-1.157-1.001c-1.43,4.821-6.588,2.41-6.588,2.41
				s0.126-1.275,2.009-2.525c1.184-0.786,2.934-0.606,3.922-0.414c-1.192-0.936-2.549-1.866-4.039-2.668
				c-0.883,4.559-5.735,2.721-5.735,2.721s0.027-1.145,1.62-2.385c1.042-0.811,2.7-0.733,3.571-0.62
				c-1.609-0.814-3.362-1.466-5.218-1.814c0.077,4.135-4.4,3.335-4.4,3.335s-0.158-0.968,0.988-2.265
				c0.892-1.009,2.718-1.095,3.258-1.098c-0.652-0.116-1.317-0.195-1.993-0.228L2.906,129.27z"/>
			<g>
				<g>
					<path class="st4" d="M39.073,153.848c0,0,9.293-20.978,2.569-40.47S18.681,88.19,18.681,88.19s9.638,11.16,4.043,28.566
						c-5.291,16.462,4.799,37.092,4.799,37.092H39.073z"/>
					<path class="st9" d="M35.786,153.848c0,0,2.38-42.677-7.689-53.902c9.159,14.149,5.345,53.902,5.345,53.902H35.786z"/>
				</g>
				<path class="st8" d="M19.823,153.848h9.939c-0.396-1.751-1.826-7.042-5.394-11.033c-4.334-4.849-9.802-4.379-9.802-4.379
					s2.974,3.263,3.43,9.126C18.179,149.899,18.97,152.09,19.823,153.848z"/>
				<path class="st10" d="M42.806,130.645c-7.236,9.434-8.859,21.735-9.031,23.203h14.068c3.559-3.286,7.923-8.601,7.958-14.994
					c0.061-11.416,5.358-18.185,5.358-18.185S50.514,120.598,42.806,130.645z"/>
				<path class="st6" d="M26.54,153.848h0.745c-1.415-3.24-5.025-10.834-8.405-12.378C22.185,143.687,25.227,150.557,26.54,153.848z
					"/>
				<path class="st11" d="M38.221,153.848h1.461c1.713-5.665,6.949-21.439,13.557-26.647
					C46.414,130.985,40.039,148.492,38.221,153.848z"/>
			</g>
		</g>
		<rect x="14.033" y="153.848" class="st1" width="41.942" height="1.664"/>
	</g>
	<g>
		<path class="st12" d="M201.782,82.791c-0.217-0.488-0.692-0.806-1.163-1.057c-0.817-0.435-1.703-0.749-2.461-1.279
			c-0.271-0.189-0.514-0.414-0.743-0.652l-0.063,0.649l-2.323,2.454l-1.418,0.142c0.413,0.528,0.945,0.965,1.512,1.166
			c0.581,0.206,1.235-0.091,1.847,0.106c0.565,0.182,1.066,0.577,1.35,1.102c0.512,0.948,0.309,2.101,0.34,3.179
			c0.006,0.217,0.024,0.44,0.114,0.637c0.091,0.198-0.141,0.982,0.074,1.008c0.32,0.038,0.605-0.957,0.813-1.203
			c0.373-0.439,0.632-0.777,0.833-1.315c0.219-0.586,0.2-0.605,0.398-1.088c0.257-0.625,0.399-1.281,0.679-1.896
			C201.852,84.13,202.057,83.408,201.782,82.791z"/>
		<g>
			<path class="st13" d="M188.762,88.574L188.762,88.574c0,0-0.093-1.168-0.117-1.326c-0.024-0.159,0.301-0.871,0.346-1.041
				c0.044-0.171-0.041-0.409-0.178-0.277c-0.137,0.132-0.292,0.53-0.292,0.53l-0.249,0.978l-0.107,0.646l-0.588-0.341l0.002,4.292
				l1.682-0.128L188.762,88.574z"/>
			<g>
				<path class="st1" d="M188.937,79.618c0,0-5.383-3.352-6.342-4.677c-0.701-0.968-1.365-2.687-1.672-3.543
					c0.213-3.502-0.92-6.356-3.079-7.047c-2.923-0.936-6.618,2.445-8.252,7.552c-1.634,5.106-0.589,10.004,2.334,10.94
					c1.8,0.576,3.892-0.486,5.616-2.579c1.133-0.018,2.565,0.117,3.57,0.771c1.909,1.243,4.887,3.127,4.887,3.127l0.216,4.258
					c0,0,0.883,1.288,1.417,1.589c0.534,0.301,1.369-0.008,1.369-0.008l0.264-0.42l-0.81-1.783l0.363-2.855c0,0,1.781-1,2.117-2.143
					C191.27,81.657,190.464,80.599,188.937,79.618z"/>
				<path class="st3" d="M179.259,75.004c-1.449,4.526-4.585,7.567-7.006,6.792c-2.421-0.775-3.209-5.072-1.76-9.598
					c1.449-4.526,4.585-7.567,7.006-6.792C179.92,66.181,180.708,70.479,179.259,75.004z"/>
				<path class="st14" d="M179.466,74.303l-2.657-0.979l-1.122,3.456l2.128,1.41C177.816,78.19,179.169,76.083,179.466,74.303z"/>
				<path class="st15" d="M177.254,75.374c-0.306,0.957-1.026,1.582-1.608,1.396c-0.582-0.186-0.805-1.113-0.499-2.07
					c0.306-0.957,1.026-1.582,1.608-1.396C177.337,73.49,177.56,74.417,177.254,75.374z"/>
			</g>
			<g>
				<path class="st13" d="M185.715,85.127c0.046-0.154,0.302-0.213,0.313-0.215l0.014-0.003l0.018,0.523l-0.017-0.006
					C186.028,85.42,185.668,85.285,185.715,85.127z"/>
				<path class="st13" d="M185.777,85.727c0.031-0.087,0.261-0.178,0.271-0.182l0.016-0.006l0.006,0.175
					c0.051,0.022,0.344,0.156,0.419,0.308c0.041,0.083,0.015,0.174-0.071,0.257c-0.036,0.035-0.089,0.044-0.135,0.025
					c-0.049-0.021-0.121-0.052-0.196-0.085l0.003,0.08c0.051,0.022,0.344,0.156,0.419,0.308c0.06,0.121-0.032,0.224-0.091,0.275
					c-0.027,0.023-0.064,0.028-0.097,0.014c-0.048-0.02-0.129-0.056-0.214-0.093l0.003,0.09c0.041,0.018,0.242,0.111,0.295,0.217
					c0.03,0.062,0.01,0.13-0.057,0.19c-0.015,0.013-0.033,0.021-0.053,0.021c-0.012,0-0.024-0.002-0.035-0.007
					c-0.056-0.024-0.161-0.069-0.244-0.107c-0.123-0.056-0.144-0.24-0.12-0.305c0.018-0.049,0.118-0.098,0.166-0.119
					c-0.034-0.015-0.067-0.03-0.099-0.044c-0.172-0.079-0.201-0.335-0.168-0.427c0.019-0.051,0.104-0.104,0.181-0.142
					c-0.012-0.005-0.023-0.01-0.034-0.015C185.773,86.076,185.744,85.819,185.777,85.727z"/>
			</g>
		</g>
		<rect x="196.236" y="87.265" class="st13" width="3.533" height="4.66"/>
		<path class="st5" d="M199.708,89.853c0,0,5.283,1.767,6.268,2.505c0.984,0.738,6.601,8.368,6.724,9.204
			c0.123,0.836-4.609,9.483-4.609,9.483l-1.649-1.142l2.546-7.786l-4.101-3.287l0.125,16.649l-12.918-0.062l0.928-17.886
			l-4.531,1.466c-0.442,0.147-0.906-0.154-0.952-0.617l-0.344-6.677l2.022-0.265l0.878,2.682l6.17-3.278
			C196.264,90.842,195.546,92.737,199.708,89.853z"/>
		<path class="st13" d="M207.792,110.831c0,0-0.505,0.931-0.594,1.502c-0.1,0.644-0.147,1.475-0.915,2.095
			c-0.767,0.62-2.567,0.561-2.449,0.147c0.118-0.413,0.856-0.915,0.826-1.328c-0.03-0.413-0.443-0.531-0.089-0.885
			c0.354-0.354,1.086-0.59,1.281-1.062c0.195-0.472,0.637-1.387,0.637-1.387L207.792,110.831z"/>
		<path class="st13" d="M194.105,84.169c0,0-0.684,4.581,0.625,5.447c1.309,0.866,3.291-0.096,3.982-0.518
			c0.691-0.422,1.186-1.426,1.186-1.426s0.561-0.687,0.6-1.242c0.04-0.554,0.086-1.273-0.46-0.976
			c-0.869,0.471-0.445,0.095-0.445,0.095s0.364-0.533-0.178-1.276C198.872,83.53,194.388,81.667,194.105,84.169z"/>
		<g>
			<g>
				<path class="st13" d="M206.66,152.19l-0.029,1.515c-0.147-0.012-2.027-0.039-2.027-0.039l0.029-1.515L206.66,152.19z"/>
				<path class="st16" d="M207.144,153.178c0,0,4.342,2.283,4.432,2.324c0.04,0.018,0.257,0.074,0.486,0.13
					c0.36,0.088,0.609,0.396,0.602,0.744c-0.002,0.123-0.009,0.221-0.025,0.241c-0.046,0.062-8.45-0.161-8.45-0.161
					s-0.145-2.703,0.302-2.8C204.938,153.558,206.45,153.945,207.144,153.178z"/>
				<g>
					<polygon class="st7" points="209.632,154.483 209.222,155.19 209.49,155.346 209.907,154.628 					"/>
					<polygon class="st7" points="210.116,154.738 209.724,155.414 209.992,155.569 210.39,154.883 					"/>
					<polygon class="st7" points="210.573,154.98 210.196,155.63 210.464,155.785 210.847,155.124 					"/>
				</g>
			</g>
			<g>
				<path class="st13" d="M192.367,152.251l-0.15,1.515c0.147-0.011,2.028-0.016,2.028-0.016l0.092-1.515L192.367,152.251z"/>
				<path class="st16" d="M191.71,153.233c0,0-4.367,2.235-4.457,2.275c-0.04,0.018-0.258,0.071-0.487,0.124
					c-0.361,0.084-0.614,0.389-0.61,0.737c0.001,0.123,0.007,0.221,0.022,0.242c0.046,0.063,8.451-0.068,8.451-0.068
					s0.174-2.702-0.271-2.804C193.911,153.637,192.395,154.008,191.71,153.233z"/>
				<g>
					<polygon class="st7" points="189.207,154.51 189.609,155.222 189.339,155.374 188.931,154.652 					"/>
					<polygon class="st7" points="188.721,154.76 189.105,155.44 188.835,155.592 188.445,154.902 					"/>
					<polygon class="st7" points="188.261,154.996 188.631,155.651 188.361,155.803 187.985,155.138 					"/>
				</g>
			</g>
			<polygon class="st16" points="192.298,115.39 191.567,152.468 194.428,152.37 200.257,115.425 			"/>
			<polygon class="st16" points="196.435,116.181 204.361,152.468 207.699,152.468 204.978,115.447 196.127,115.413 			"/>
		</g>
		<path class="st17" d="M200.529,85.218l-8.565-1.985c0,0-0.07-0.891,1.321-0.655c1.391,0.236,0.497-2.534,3.643-3.223
			c3.146-0.689,4.783,1.681,5.085,2.585c0.302,0.905-0.495,3.599-0.495,3.599L200.529,85.218z"/>
	</g>
	<g>
		<path class="st5" d="M163.635,156.628h18.209c0.662,0,1.103-0.683,0.831-1.286l-0.424-0.941c-0.147-0.327-0.473-0.537-0.831-0.537
			h-17.472c-0.393,0-0.741,0.251-0.865,0.624l-0.313,0.941C162.573,156.018,163.013,156.628,163.635,156.628z"/>
		<g>
			<path class="st7" d="M173.962,136.64c-0.417-1.251-1.881-1.251-2.298,0l-0.866,2.598h4.029L173.962,136.64z"/>
			<polygon class="st7" points="175.909,142.482 169.717,142.482 168.901,144.928 176.724,144.928 			"/>
			<polygon class="st7" points="167.82,148.173 167.005,150.618 178.621,150.618 177.806,148.173 			"/>
			<polygon class="st5" points="174.828,139.237 170.798,139.237 169.717,142.482 175.909,142.482 			"/>
			<polygon class="st5" points="176.724,144.928 168.901,144.928 167.82,148.173 177.806,148.173 			"/>
			<polygon class="st5" points="165.923,153.863 179.703,153.863 178.621,150.618 167.005,150.618 			"/>
		</g>
	</g>
	<g>
		<rect x="51.147" y="96.96" class="st12" width="6.453" height="59.668"/>
		<rect x="100.367" y="96.697" class="st12" width="6.453" height="59.668"/>
	</g>
	<g>
		<g>
			<polygon class="st5" points="81.247,138.644 88.94,138.644 94.843,123.188 87.15,123.188 			"/>
			<polygon class="st5" points="63.124,138.644 70.817,138.644 76.72,123.188 69.027,123.188 			"/>
			<polygon class="st5" points="44.693,138.644 52.694,138.644 58.597,123.188 44.693,123.188 			"/>
			<polygon class="st5" points="105.273,123.188 99.37,138.644 113.274,138.644 113.274,123.188 			"/>
		</g>
		<polygon class="st7" points="58.597,123.188 52.694,138.644 63.124,138.644 69.027,123.188 		"/>
		<polygon class="st7" points="76.72,123.188 70.817,138.644 81.247,138.644 87.15,123.188 		"/>
		<polygon class="st7" points="94.843,123.188 88.94,138.644 99.37,138.644 105.273,123.188 		"/>
	</g>
	<g>
		<g>
			<polygon class="st5" points="81.247,117.303 88.94,117.303 94.843,101.847 87.15,101.847 			"/>
			<polygon class="st5" points="63.124,117.303 70.817,117.303 76.72,101.847 69.027,101.847 			"/>
			<polygon class="st5" points="44.693,117.303 52.694,117.303 58.597,101.847 44.693,101.847 			"/>
			<polygon class="st5" points="105.273,101.847 99.37,117.303 113.274,117.303 113.274,101.847 			"/>
		</g>
		<polygon class="st7" points="58.597,101.847 52.694,117.303 63.124,117.303 69.027,101.847 		"/>
		<polygon class="st7" points="76.72,101.847 70.817,117.303 81.247,117.303 87.15,101.847 		"/>
		<polygon class="st7" points="94.843,101.847 88.94,117.303 99.37,117.303 105.273,101.847 		"/>
	</g>
	<path class="st17" d="M104.044,133.85H53.746c-2.454,0-4.444-1.99-4.444-4.444v-18.332c0-2.454,1.99-4.444,4.444-4.444h50.298
		c2.454,0,4.444,1.99,4.444,4.444v18.332C108.488,131.86,106.498,133.85,104.044,133.85z"/>
	<g>
		<path class="st17" d="M102.758,131.543H55.209c-1.925,0-3.485-1.56-3.485-3.485v-15.966c0-1.925,1.56-3.485,3.485-3.485h47.548
			c1.925,0,3.485,1.56,3.485,3.485v15.966C106.243,129.982,104.682,131.543,102.758,131.543z"/>
		<path class="st12" d="M102.217,132.042H55.751c-2.538,0-4.604-1.788-4.604-3.985v-15.966c0-2.197,2.066-3.985,4.604-3.985h46.466
			c2.538,0,4.603,1.788,4.603,3.985v15.966C106.82,130.255,104.756,132.042,102.217,132.042z M55.751,109.106
			c-1.902,0-3.449,1.339-3.449,2.985v15.966c0,1.646,1.547,2.985,3.449,2.985h46.466c1.901,0,3.448-1.339,3.448-2.985v-15.966
			c0-1.646-1.547-2.985-3.448-2.985H55.751z"/>
	</g>
	<g>
		<g>
			<path class="st17" d="M132.925,130.409l-13.064-13.064c-1.399-1.399-1.399-3.667,0-5.065l13.064-13.064
				c1.399-1.399,3.667-1.399,5.065,0l13.064,13.064c1.399,1.399,1.399,3.667,0,5.065l-13.064,13.064
				C136.592,131.808,134.324,131.808,132.925,130.409z"/>
			<g>
				<path class="st12" d="M148.913,111.838l-10.481-10.481c-0.795-0.795-1.852-1.232-2.975-1.232c-1.124,0-2.181,0.438-2.976,1.232
					l-10.48,10.481c-0.794,0.793-1.231,1.85-1.231,2.975c0,1.125,0.438,2.181,1.23,2.975l10.481,10.481
					c0.795,0.795,1.852,1.232,2.976,1.232c1.123,0,2.18-0.438,2.975-1.232l10.481-10.481c0.795-0.795,1.232-1.852,1.232-2.975
					C150.146,113.689,149.708,112.633,148.913,111.838z M148.029,116.903l-10.482,10.481c-1.114,1.117-3.061,1.118-4.182,0h0.001
					l-10.481-10.481c-1.153-1.153-1.153-3.029,0-4.182l10.48-10.481c1.12-1.118,3.067-1.116,4.182,0l10.482,10.481
					c0.559,0.559,0.866,1.301,0.866,2.091C148.896,115.602,148.588,116.345,148.029,116.903z"/>
				<path class="st12" d="M134.239,118.075c0.039,0.062,0.107,0.115,0.205,0.158c0.098,0.043,0.229,0.076,0.393,0.1
					c0.164,0.023,0.371,0.035,0.621,0.035c0.242,0,0.447-0.012,0.615-0.035c0.168-0.023,0.301-0.057,0.398-0.1
					c0.098-0.043,0.166-0.096,0.205-0.158c0.039-0.062,0.062-0.133,0.07-0.211l0.305-10.641c0-0.102-0.025-0.189-0.076-0.264
					c-0.051-0.074-0.137-0.137-0.258-0.188c-0.121-0.051-0.283-0.09-0.486-0.117c-0.203-0.027-0.461-0.041-0.773-0.041
					s-0.572,0.012-0.779,0.035c-0.207,0.023-0.371,0.061-0.492,0.111c-0.121,0.051-0.205,0.115-0.252,0.193
					c-0.047,0.078-0.07,0.168-0.07,0.27l0.305,10.641C134.176,117.942,134.2,118.013,134.239,118.075z"/>
				<path class="st12" d="M136.764,119.933c-0.129-0.137-0.299-0.234-0.51-0.293c-0.211-0.059-0.477-0.088-0.797-0.088
					c-0.32,0-0.588,0.029-0.803,0.088c-0.215,0.059-0.385,0.156-0.51,0.293c-0.125,0.137-0.213,0.316-0.264,0.539
					c-0.051,0.223-0.076,0.498-0.076,0.826c0,0.32,0.025,0.59,0.076,0.809c0.051,0.219,0.139,0.395,0.264,0.527
					c0.125,0.133,0.295,0.228,0.51,0.287c0.215,0.059,0.482,0.088,0.803,0.088c0.32,0,0.586-0.029,0.797-0.088
					c0.211-0.059,0.381-0.154,0.51-0.287c0.129-0.133,0.219-0.309,0.27-0.527c0.051-0.219,0.076-0.488,0.076-0.809
					c0-0.328-0.025-0.604-0.076-0.826C136.983,120.249,136.893,120.069,136.764,119.933z"/>
			</g>
		</g>
		<path class="st12" d="M136.281,154.838v-23.473h-1.646v23.473c-2.234,0.074-3.936,0.442-3.936,0.887
			c0,0.498,2.131,0.902,4.759,0.902c2.628,0,4.759-0.404,4.759-0.902C140.216,155.28,138.514,154.912,136.281,154.838z"/>
	</g>
	<path class="st10" d="M234.781,63.728h-0.035v-0.969c0-3.952-3.215-7.167-7.168-7.167c-3.953,0-7.168,3.215-7.168,7.167v0.969
		h-0.035c-1.029,0-1.864,0.834-1.864,1.864V77.77c0,1.029,0.834,1.864,1.864,1.864h14.406c1.029,0,1.864-0.834,1.864-1.864V65.591
		C236.645,64.562,235.811,63.728,234.781,63.728z M228.843,70.536v5.614h-2.529v-5.614c-0.902-0.534-1.447-1.607-1.15-2.786
		c0.213-0.848,0.901-1.545,1.747-1.765c1.667-0.433,3.164,0.814,3.164,2.41C230.074,69.31,229.577,70.101,228.843,70.536z
		 M231.761,63.728h-8.366v-0.969c0-2.306,1.876-4.182,4.183-4.182s4.183,1.876,4.183,4.182V63.728z"/>
	<g>
		<path class="st16" d="M57.951,6.726L57.15,1.867c0.44-0.444,1.03-0.76,1.9-0.76c2.278,0,4.683,0.253,5.062,1.898
			c0.38,1.645-0.063,3.417,0.443,4.113c0.506,0.696,0.82,1.291-0.473,0.992c-1.294-0.298-2.881,0.59-2.881,0.59l-2.264-1.202
			l-0.986,0.349V6.726z"/>
		<g>
			<path class="st18" d="M46.752,47.231l-0.231,1.583c0.155,0.012,2.119,0.309,2.119,0.309l0.231-1.583L46.752,47.231z"/>
			<path class="st16" d="M46.078,48.177c0,0-4.916,1.631-5.017,1.658c-0.045,0.012-0.28,0.032-0.528,0.051
				c-0.391,0.03-0.703,0.308-0.756,0.671c-0.019,0.128-0.028,0.232-0.016,0.256c0.038,0.073,8.831,1.287,8.831,1.287
				s0.616-2.792,0.167-2.97C48.31,48.953,46.668,49.096,46.078,48.177z"/>
			<g>
				<polygon class="st7" points="43.261,49.108 43.566,49.915 43.26,50.031 42.95,49.212 				"/>
				<polygon class="st7" points="42.713,49.291 43.005,50.062 42.699,50.178 42.402,49.394 				"/>
				<polygon class="st7" points="42.195,49.463 42.476,50.206 42.17,50.322 41.884,49.567 				"/>
			</g>
		</g>
		<g>
			<path class="st18" d="M39.701,43.932l-0.917,1.311c0.134,0.081,1.755,1.227,1.755,1.227l0.917-1.311L39.701,43.932z"/>
			<path class="st16" d="M38.674,44.474c0,0-5.125-0.75-5.227-0.771c-0.045-0.009-0.265-0.097-0.495-0.191
				c-0.362-0.149-0.766-0.041-0.977,0.26c-0.074,0.106-0.129,0.194-0.129,0.221c0.001,0.082,7.313,5.115,7.313,5.115
				s1.804-2.218,1.483-2.578C40.32,46.17,38.788,45.56,38.674,44.474z"/>
			<g>
				<polygon class="st7" points="35.738,44.041 35.649,44.899 35.323,44.866 35.414,43.994 				"/>
				<polygon class="st7" points="35.167,43.958 35.082,44.778 34.756,44.744 34.843,43.911 				"/>
				<polygon class="st7" points="34.627,43.88 34.544,44.67 34.219,44.636 34.303,43.833 				"/>
			</g>
		</g>
		<path class="st16" d="M58.599,27.55c0,0-10.369-1.474-11.381-0.385c-1.012,1.089-7.847,17.225-7.847,17.225l2.215,1.266
			l8.669-12.276l9.429-3.923L58.599,27.55z"/>
		<path class="st18" d="M57.216,7.372c0,0,0.212,2.151,0.989,2.341c0.777,0.19,0.212,1.266,1.554,1.645
			c1.342,0.38,2.33-0.316,2.613,0c0.282,0.316,1.483,2.721,1.483,2.721l0.565,0.696l1.695-5.126l-1.624-2.025
			c0,0-1.765,0.696-1.907-0.569c-0.141-1.266-2.118-1.582-2.048-0.316C60.605,8.005,58.628,4.334,57.216,7.372z"/>
		<path class="st5" d="M64.896,9.243c0,0,1.874-1.681,2.064-0.542c0.19,1.139,3.354,1.012,4.683,6.328
			c1.329,5.316,1.898,14.175,1.898,15.947c0,1.772-1.898,4.241-2.974,4.241c-1.076,0,0.633-2.09-2.721-5.633
			c-3.354-3.544-6.328-3.734-6.328-3.734s0.204-7.576,0.774-9.601C62.862,14.224,63.592,9.722,64.896,9.243z"/>
		<path class="st16" d="M70.568,35.216c0,0-7.006-0.153-10.884-0.489c-3.192-0.276-6.725-0.763-6.725-0.763l-3.147,14.033
			l-3.101-0.38l1.392-18.161c0,0-0.451-2.783,5.316-2.215c5.767,0.568,13.858,0.317,13.858,0.317l2.025,1.962L70.568,35.216z"/>
		<path class="st18" d="M56.633,24.492c0,0-4.079-0.609-4.535-0.609c-0.455,0-1.852,0.546-2.338,1.214
			c-0.486,0.668-1.093,1.761-0.425,1.518c0.668-0.243,1.154-0.972,2.914-0.607c1.761,0.364,2.556,0.751,4.208,0.542
			C58.109,26.342,56.633,24.492,56.633,24.492z"/>
		<polygon class="st16" points="43.098,20.42 48.251,26.65 46.184,26.65 40.657,20.239 		"/>
		<path class="st19" d="M65.694,16.595c0,0,1.173-5.323,3.429-2.89c2.256,2.434,1.2,5.846,0.782,9.471
			c-0.402,3.486-2.102,6.855-4.716,6.634c-2.614-0.221-8.852-3.318-8.852-3.318l0.334-2.256l7.763,0.973
			C64.433,25.208,64.588,19.736,65.694,16.595z"/>
		<rect x="46.184" y="26.307" class="st16" width="8.199" height="0.604"/>
		<path class="st16" d="M60.338,6.993c0,0,1.278,1.498,1.326,2.026c0.048,0.528-0.053,1.962-0.48,2.113
			c-0.427,0.151-1.299,0.26-1.299,0.26l0.782,0.106c0,0,1.607,0.113,1.703-0.139c0.096-0.252,0.801-1.171,0.549-1.893
			c-0.252-0.722-0.654-1.427-0.654-1.427l-1.7-1.615L60.338,6.993z"/>
		<path class="st17" d="M63.542,3.734l-7.62,4.745c0,0-0.678-0.583,0.499-1.415c1.177-0.833-1.421-2.158,0.38-4.909
			c1.801-2.751,4.657-2.243,5.513-1.817c0.856,0.426,2.172,2.914,2.172,2.914L63.542,3.734z"/>
	</g>
	<text transform="matrix(1 0 0 1 70.0272 117.3034)" class="st12 st20 st21">OOP!</text>
	<text transform="matrix(1 0 0 1 56.8233 127.2008)" class="st12 st22 st23">Not installed!</text>
</g>
</svg>
